name rise32.9588peak41.5061fall63.4684.mot
datacolumns 19
datarows 11
range 22.78991200000000 22.80657700000000
endheader
time	ground_force1_vx	ground_force1_vy	ground_force1_vz	ground_force1_px	ground_force1_py	ground_force1_pz	ground_force2_vx	ground_force2_vy	ground_force2_vz	ground_force2_px	ground_force2_py	ground_force2_pz	ground_torque1_x	ground_torque1_y	ground_torque1_z	ground_torque2_x	ground_torque2_y	ground_torque2_z	
22.78991200000000	-7.04734900000000	42.17432100000000	-10.60718600000000	0.27075000000000	0.00000000000000	0.09919600000000	-38.62314300000000	789.62875599999995	-48.89693100000000	0.09425300000000	0.00000000000000	-0.07396400000000	0.00000000000000	-5.83146700000000	0.00000000000000	0.00000000000000	-13.70493300000000	0.00000000000000	
22.79158300000000	-7.68338700000000	49.54983900000000	-11.90148200000000	0.27566100000000	0.00000000000000	0.10020400000000	-39.27942300000000	786.69747600000005	-48.53289700000000	0.09352000000000	0.00000000000000	-0.07384400000000	0.00000000000000	-6.63310900000000	0.00000000000000	0.00000000000000	-13.67809700000000	0.00000000000000	
22.79326300000000	-8.17364700000000	57.05112800000000	-13.06854100000000	0.28006100000000	0.00000000000000	0.10112600000000	-39.95912000000000	783.64187800000002	-48.14974700000000	0.09278400000000	0.00000000000000	-0.07372100000000	0.00000000000000	-7.38081200000000	0.00000000000000	0.00000000000000	-13.65497500000000	0.00000000000000	
22.79491000000000	-8.49877400000000	64.58477400000000	-14.08043700000000	0.28403800000000	0.00000000000000	0.10197600000000	-40.66157400000000	780.45992000000001	-47.74746200000000	0.09204600000000	0.00000000000000	-0.07359400000000	0.00000000000000	-8.05755200000000	0.00000000000000	0.00000000000000	-13.63550000000000	0.00000000000000	
22.79658200000000	-8.64758000000000	72.07958600000001	-14.91892000000000	0.28766300000000	0.00000000000000	0.10276300000000	-41.38599800000000	777.14948600000002	-47.32603800000000	0.09130600000000	0.00000000000000	-0.07346400000000	0.00000000000000	-8.65150600000000	0.00000000000000	0.00000000000000	-13.61958300000000	0.00000000000000	
22.79824600000000	-8.61687900000000	79.48888800000000	-15.57550400000000	0.29099200000000	0.00000000000000	0.10349600000000	-42.13147500000000	773.70839100000001	-46.88548700000000	0.09056500000000	0.00000000000000	-0.07332900000000	0.00000000000000	-9.15622800000000	0.00000000000000	0.00000000000000	-13.60710800000000	0.00000000000000	
22.79991700000000	-8.41069900000000	86.79040400000000	-16.05074300000000	0.29406900000000	0.00000000000000	0.10418200000000	-42.89696000000000	770.13438799999994	-46.42584200000000	0.08982300000000	0.00000000000000	-0.07319000000000	0.00000000000000	-9.57036300000000	0.00000000000000	0.00000000000000	-13.59793900000000	0.00000000000000	
22.80157700000000	-8.03904000000000	93.98415100000000	-16.35288700000000	0.29693100000000	0.00000000000000	0.10482600000000	-43.68127600000000	766.42517899999996	-45.94715400000000	0.08908300000000	0.00000000000000	-0.07304800000000	0.00000000000000	-9.89698600000000	0.00000000000000	0.00000000000000	-13.59191400000000	0.00000000000000	
22.80324600000000	-7.51635600000000	101.08884900000000	-16.49614200000000	0.29960800000000	0.00000000000000	0.10543300000000	-44.48312200000000	762.57841800000006	-45.44949500000000	0.08834400000000	0.00000000000000	-0.07290100000000	0.00000000000000	-10.14269800000000	0.00000000000000	0.00000000000000	-13.58884900000000	0.00000000000000	
22.80491000000000	-6.85993400000000	108.13741100000000	-16.49874400000000	0.30212500000000	0.00000000000000	0.10600700000000	-45.30107000000000	758.59172400000000	-44.93295900000000	0.08760800000000	0.00000000000000	-0.07275000000000	0.00000000000000	-10.31658200000000	0.00000000000000	0.00000000000000	-13.58853800000000	0.00000000000000	
22.80657700000000	-6.08833100000000	115.17205000000000	-16.38103000000000	0.30450100000000	0.00000000000000	0.10655100000000	-46.13357100000000	754.46269199999995	-44.39766400000000	0.08687500000000	0.00000000000000	-0.07259500000000	0.00000000000000	-10.42913400000000	0.00000000000000	0.00000000000000	-13.59075200000000	0.00000000000000	
